# xmcd
#
# Track frame offsets: 
#        150
#        14182
#        27945
#        43542
#        56422
#        70755
#        83540
#        97460
#        109802
#        122715
#        135290
#        147057
#
# Disc length: 2130 seconds
#
# Revision: 3
# Processed by: cddbd v1.5.2PL0 Copyright (c) Steve Scherf et al.
# Submitted via: ExactAudioCopy v0.99pb3
#
DISCID=a108500c
DTITLE=Various Artist - The Best of Chess Blues, Vol. 1
DYEAR=1988
DGENRE=Blues
TTITLE0=Muddy Waters - Rollin' Stone
TTITLE1=Robert Nighthawk - Black Angel Blues (Sweet Black Angel)
TTITLE2=Eddie Boyd and His Chess Men - 24 Hours
TTITLE3=Willie Mabon - Seventh Son
TTITLE4=Lowell Fulson - Reconsider Baby
TTITLE5=Muddy Waters - (I'm Your) Hoochie Coochie Man
TTITLE6=Howlin' Wolf - Smokestack Lightnin'
TTITLE7=Little Walter and His Night Cats - Juke
TTITLE8=J.B. Lenoir - Eisenhower Blues
TTITLE9=Jimmy Rogers - Walking By Myself
TTITLE10=Sonny Boy Williamson - Don't Start Me Talkin'
TTITLE11=Little Walter - Boom Boom (Out Go The Lights)
EXTD=
EXTT0=
EXTT1=
EXTT2=
EXTT3=
EXTT4=
EXTT5=
EXTT6=
EXTT7=
EXTT8=
EXTT9=
EXTT10=
EXTT11=
PLAYORDER=
